<?xml version="1.0" standalone="no"?><!DOCTYPE svg PUBLIC "-//W3C//DTD SVG 1.1//EN" "http://www.w3.org/Graphics/SVG/1.1/DTD/svg11.dtd"><svg class="icon" width="200px" height="200.00px" viewBox="0 0 1024 1024" version="1.1" xmlns="http://www.w3.org/2000/svg"><path d="M920 128H548v-28a36 36 0 0 0-72 0v28H104a40 40 0 0 0-40 40v28a4 4 0 0 0 4 4h60v464a40 40 0 0 0 40 40h308v120H272a40 40 0 0 0-40 40v28a4 4 0 0 0 4 4h552a4 4 0 0 0 4-4v-28a40 40 0 0 0-40-40H548V704h308a40 40 0 0 0 40-40V200h60a4 4 0 0 0 4-4v-28a40 40 0 0 0-40-40zM432 320v56a4 4 0 0 1-4 4H276a4 4 0 0 1-4-4v-56a4 4 0 0 1 4-4h152a4 4 0 0 1 4 4z m160 192a4 4 0 0 1-4 4H276a4 4 0 0 1-4-4v-56a4 4 0 0 1 4-4h312a4 4 0 0 1 4 4z" fill="#1296db" /></svg>